<svg width="60" height="60" viewBox="0 0 60 60" fill="none" xmlns="http://www.w3.org/2000/svg">
<circle cx="30" cy="30" r="30" fill="#4E4E4E"/>
<g clip-path="url(#clip0_4108_2823)">
<path d="M19.5 32.25H40.5M30 32.25V48M21.75 28.5V21.75H19.992C18.993 21.75 18.0225 22.0824 17.2333 22.6948C16.4441 23.3072 15.8811 24.1648 15.633 25.1325L12.75 36.375V36.75H23.25V39C23.25 41.25 23.25 42.75 24.375 45C24.375 45 25.5 47.25 27 47.25M38.25 28.5V21.75H40.008C41.007 21.75 41.9775 22.0824 42.7667 22.6948C43.5559 23.3072 44.1189 24.1648 44.367 25.1325L47.25 36.375V36.75H36.75V39C36.75 41.25 36.75 42.75 35.625 45C35.625 45 34.5 47.25 33 47.25M21.525 18.75C21.525 18.75 19.125 17.25 19.125 15.375C19.125 14.6796 19.4012 14.0127 19.893 13.521C20.3847 13.0292 21.0516 12.753 21.747 12.753C22.4424 12.753 23.1093 13.0292 23.601 13.521C24.0928 14.0127 24.369 14.6796 24.369 15.375C24.369 17.25 21.975 18.75 21.975 18.75H21.525ZM38.475 18.75C38.475 18.75 40.875 17.25 40.875 15.375C40.875 14.6788 40.5984 14.0111 40.1062 13.5188C39.6139 13.0266 38.9462 12.75 38.25 12.75C36.801 12.75 35.631 13.926 35.631 15.375C35.631 17.25 38.025 18.75 38.025 18.75H38.475Z" stroke="white" stroke-width="2"/>
</g>
<defs>
<clipPath id="clip0_4108_2823">
<rect width="36" height="36" fill="white" transform="translate(12 12)"/>
</clipPath>
</defs>
</svg>
