<svg width="60" height="60" viewBox="0 0 60 60" fill="none" xmlns="http://www.w3.org/2000/svg">
<circle cx="30" cy="30" r="30" fill="#4E4E4E"/>
<path d="M19.7143 28.0712C19.7143 27.2187 20.0529 26.4012 20.6557 25.7984C21.2585 25.1956 22.0761 24.8569 22.9285 24.8569C23.781 24.8569 24.5986 25.1956 25.2014 25.7984C25.8042 26.4012 26.1428 27.2187 26.1428 28.0712C26.1428 28.9237 25.8042 29.7413 25.2014 30.3441C24.5986 30.9469 23.781 31.2855 22.9285 31.2855C22.0761 31.2855 21.2585 30.9469 20.6557 30.3441C20.0529 29.7413 19.7143 28.9237 19.7143 28.0712ZM22.9285 26.7855C22.5876 26.7855 22.2605 26.921 22.0194 27.1621C21.7783 27.4032 21.6428 27.7302 21.6428 28.0712C21.6428 28.4122 21.7783 28.7392 22.0194 28.9804C22.2605 29.2215 22.5876 29.3569 22.9285 29.3569C23.2695 29.3569 23.5966 29.2215 23.8377 28.9804C24.0788 28.7392 24.2143 28.4122 24.2143 28.0712C24.2143 27.7302 24.0788 27.4032 23.8377 27.1621C23.5966 26.921 23.2695 26.7855 22.9285 26.7855ZM22.9285 33.8569C22.0761 33.8569 21.2585 34.1956 20.6557 34.7984C20.0529 35.4012 19.7143 36.2187 19.7143 37.0712C19.7143 37.9237 20.0529 38.7413 20.6557 39.3441C21.2585 39.9469 22.0761 40.2855 22.9285 40.2855C23.781 40.2855 24.5986 39.9469 25.2014 39.3441C25.8042 38.7413 26.1428 37.9237 26.1428 37.0712C26.1428 36.2187 25.8042 35.4012 25.2014 34.7984C24.5986 34.1956 23.781 33.8569 22.9285 33.8569ZM21.6428 37.0712C21.6428 36.7302 21.7783 36.4032 22.0194 36.1621C22.2605 35.921 22.5876 35.7855 22.9285 35.7855C23.2695 35.7855 23.5966 35.921 23.8377 36.1621C24.0788 36.4032 24.2143 36.7302 24.2143 37.0712C24.2143 37.4122 24.0788 37.7392 23.8377 37.9804C23.5966 38.2215 23.2695 38.3569 22.9285 38.3569C22.5876 38.3569 22.2605 38.2215 22.0194 37.9804C21.7783 37.7392 21.6428 37.4122 21.6428 37.0712ZM28.7143 27.7498C28.7143 27.494 28.8159 27.2488 28.9967 27.0679C29.1775 26.8871 29.4228 26.7855 29.6785 26.7855H39.3214C39.5771 26.7855 39.8224 26.8871 40.0033 27.0679C40.1841 27.2488 40.2857 27.494 40.2857 27.7498C40.2857 28.0055 40.1841 28.2508 40.0033 28.4316C39.8224 28.6125 39.5771 28.7141 39.3214 28.7141H29.6785C29.4228 28.7141 29.1775 28.6125 28.9967 28.4316C28.8159 28.2508 28.7143 28.0055 28.7143 27.7498ZM29.6785 35.7855C29.4228 35.7855 29.1775 35.8871 28.9967 36.0679C28.8159 36.2488 28.7143 36.494 28.7143 36.7498C28.7143 37.0055 28.8159 37.2508 28.9967 37.4316C29.1775 37.6125 29.4228 37.7141 29.6785 37.7141H39.3214C39.5771 37.7141 39.8224 37.6125 40.0033 37.4316C40.1841 37.2508 40.2857 37.0055 40.2857 36.7498C40.2857 36.494 40.1841 36.2488 40.0033 36.0679C39.8224 35.8871 39.5771 35.7855 39.3214 35.7855H29.6785ZM19.7143 21.3212C19.7143 21.0655 19.8159 20.8202 19.9967 20.6394C20.1775 20.4585 20.4228 20.3569 20.6785 20.3569H39.3214C39.5771 20.3569 39.8224 20.4585 40.0033 20.6394C40.1841 20.8202 40.2857 21.0655 40.2857 21.3212C40.2857 21.577 40.1841 21.8222 40.0033 22.0031C39.8224 22.1839 39.5771 22.2855 39.3214 22.2855H20.6785C20.4228 22.2855 20.1775 22.1839 19.9967 22.0031C19.8159 21.8222 19.7143 21.577 19.7143 21.3212ZM20.6785 15.8569C19.3998 15.8569 18.1735 16.3649 17.2693 17.2691C16.3651 18.1733 15.8571 19.3996 15.8571 20.6784V39.3212C15.8571 40.5999 16.3651 41.8263 17.2693 42.7305C18.1735 43.6347 19.3998 44.1426 20.6785 44.1426H39.3214C40.6001 44.1426 41.8265 43.6347 42.7307 42.7305C43.6349 41.8263 44.1428 40.5999 44.1428 39.3212V20.6784C44.1428 19.3996 43.6349 18.1733 42.7307 17.2691C41.8265 16.3649 40.6001 15.8569 39.3214 15.8569H20.6785ZM17.7857 20.6784C17.7857 19.9111 18.0905 19.1753 18.633 18.6328C19.1755 18.0903 19.9113 17.7855 20.6785 17.7855H39.3214C40.0886 17.7855 40.8244 18.0903 41.367 18.6328C41.9095 19.1753 42.2143 19.9111 42.2143 20.6784V39.3212C42.2143 40.0885 41.9095 40.8243 41.367 41.3668C40.8244 41.9093 40.0886 42.2141 39.3214 42.2141H20.6785C19.9113 42.2141 19.1755 41.9093 18.633 41.3668C18.0905 40.8243 17.7857 40.0885 17.7857 39.3212V20.6784Z" fill="white"/>
</svg>
