<svg width="60" height="60" viewBox="0 0 60 60" fill="none" xmlns="http://www.w3.org/2000/svg">
<circle cx="30" cy="30" r="30" fill="#4E4E4E"/>
<path fill-rule="evenodd" clip-rule="evenodd" d="M28.416 13.875H31.584C34.341 13.875 36.525 13.875 38.2335 14.1045C39.9915 14.3415 41.415 14.8395 42.5385 15.9615C42.7372 16.1748 42.8454 16.4568 42.8403 16.7483C42.8351 17.0397 42.7171 17.3178 42.5109 17.5239C42.3048 17.7301 42.0267 17.8481 41.7353 17.8533C41.4438 17.8584 41.1618 17.7502 40.9485 17.5515C40.3125 16.9185 39.4425 16.5375 37.9335 16.335C36.393 16.128 34.3605 16.125 31.5 16.125H28.5C25.6395 16.125 23.6085 16.128 22.065 16.335C20.5575 16.5375 19.6875 16.9185 19.053 17.553C18.4185 18.1875 18.0375 19.0575 17.835 20.5665C17.628 22.1085 17.625 24.1395 17.625 27V33C17.625 35.8605 17.628 37.893 17.835 39.435C18.0375 40.9425 18.4185 41.8125 19.053 42.447C19.6875 43.0815 20.5575 43.4625 22.0665 43.665C23.6085 43.872 25.6395 43.875 28.5 43.875H31.5C34.3605 43.875 36.393 43.872 37.935 43.665C39.4425 43.4625 40.3125 43.0815 40.947 42.447C41.991 41.403 42.3075 39.7815 42.3615 35.9835C42.3659 35.6851 42.4886 35.4007 42.7027 35.1928C42.9167 34.985 43.2046 34.8706 43.503 34.875C43.8014 34.8794 44.0858 35.0021 44.2937 35.2162C44.5015 35.4302 44.6159 35.7181 44.6115 36.0165C44.559 39.657 44.3235 42.2535 42.5385 44.0385C41.415 45.1605 39.9915 45.6585 38.2335 45.8955C36.5235 46.125 34.341 46.125 31.584 46.125H28.416C25.659 46.125 23.475 46.125 21.7665 45.8955C20.0085 45.6585 18.585 45.1605 17.4615 44.0385C16.3395 42.915 15.8415 41.4915 15.6045 39.7335C15.375 38.0235 15.375 35.841 15.375 33.084V26.916C15.375 24.159 15.375 21.975 15.6045 20.2665C15.8415 18.5085 16.3395 17.085 17.4615 15.9615C18.585 14.8395 20.0085 14.3415 21.7665 14.1045C23.4765 13.875 25.659 13.875 28.416 13.875ZM39.171 22.569C39.546 22.1765 39.9956 21.8628 40.4935 21.6465C40.9914 21.4302 41.5275 21.3156 42.0703 21.3094C42.6131 21.3032 43.1517 21.4055 43.6544 21.6104C44.1571 21.8153 44.6138 22.1185 44.9976 22.5024C45.3815 22.8862 45.6847 23.3429 45.8896 23.8456C46.0945 24.3483 46.1968 24.8869 46.1906 25.4297C46.1844 25.9725 46.0698 26.5086 45.8535 27.0065C45.6372 27.5044 45.3235 27.954 44.931 28.329L37.8 35.4645C37.5033 35.777 37.1877 36.0711 36.855 36.345C36.51 36.615 36.135 36.846 35.739 37.035C35.403 37.1955 35.049 37.3125 34.53 37.485L31.404 38.5275C31.0655 38.6408 30.7021 38.6574 30.3547 38.5756C30.0073 38.4938 29.6895 38.3168 29.4371 38.0644C29.1847 37.812 29.0077 37.4942 28.9259 37.1468C28.8441 36.7994 28.8607 36.436 28.974 36.0975L29.9955 33.0375L30.0165 32.973C30.1905 32.4525 30.3075 32.1 30.468 31.764C30.6568 31.3681 30.8882 30.9939 31.158 30.648C31.3875 30.354 31.65 30.0915 32.0385 29.703L32.085 29.6565L39.171 22.569ZM43.341 24.159C43.1716 23.9896 42.9705 23.8551 42.7492 23.7634C42.5278 23.6717 42.2906 23.6245 42.051 23.6245C41.8114 23.6245 41.5742 23.6717 41.3528 23.7634C41.1315 23.8551 40.9304 23.9896 40.761 24.159L40.488 24.432C40.503 24.4815 40.5195 24.537 40.539 24.5925C40.68 24.9975 40.9485 25.5375 41.4555 26.0445C41.9042 26.496 42.4584 26.8285 43.068 27.012L43.341 26.739C43.5104 26.5696 43.6449 26.3685 43.7366 26.1472C43.8283 25.9258 43.8755 25.6886 43.8755 25.449C43.8755 25.2094 43.8283 24.9722 43.7366 24.7508C43.6449 24.5295 43.5104 24.3284 43.341 24.159ZM41.349 28.731C40.8015 28.4431 40.3009 28.0739 39.864 27.636C39.4261 27.1991 39.0569 26.6985 38.769 26.151L33.675 31.245C33.2235 31.6965 33.0645 31.8585 32.931 32.0295C32.7615 32.247 32.616 32.4825 32.4975 32.73C32.4045 32.9265 32.331 33.141 32.1285 33.747L31.5285 35.547L31.953 35.9715L33.753 35.3715C34.359 35.169 34.5735 35.0955 34.77 35.0025C35.0175 34.8825 35.253 34.7385 35.4705 34.569C35.6415 34.4355 35.8035 34.2765 36.255 33.825L41.349 28.731ZM22.875 25.5C22.875 25.2016 22.9935 24.9155 23.2045 24.7045C23.4155 24.4935 23.7016 24.375 24 24.375H33.75C34.0484 24.375 34.3345 24.4935 34.5455 24.7045C34.7565 24.9155 34.875 25.2016 34.875 25.5C34.875 25.7984 34.7565 26.0845 34.5455 26.2955C34.3345 26.5065 34.0484 26.625 33.75 26.625H24C23.7016 26.625 23.4155 26.5065 23.2045 26.2955C22.9935 26.0845 22.875 25.7984 22.875 25.5ZM22.875 31.5C22.875 31.2016 22.9935 30.9155 23.2045 30.7045C23.4155 30.4935 23.7016 30.375 24 30.375H27.75C28.0484 30.375 28.3345 30.4935 28.5455 30.7045C28.7565 30.9155 28.875 31.2016 28.875 31.5C28.875 31.7984 28.7565 32.0845 28.5455 32.2955C28.3345 32.5065 28.0484 32.625 27.75 32.625H24C23.7016 32.625 23.4155 32.5065 23.2045 32.2955C22.9935 32.0845 22.875 31.7984 22.875 31.5ZM22.875 37.5C22.875 37.2016 22.9935 36.9155 23.2045 36.7045C23.4155 36.4935 23.7016 36.375 24 36.375H26.25C26.5484 36.375 26.8345 36.4935 27.0455 36.7045C27.2565 36.9155 27.375 37.2016 27.375 37.5C27.375 37.7984 27.2565 38.0845 27.0455 38.2955C26.8345 38.5065 26.5484 38.625 26.25 38.625H24C23.7016 38.625 23.4155 38.5065 23.2045 38.2955C22.9935 38.0845 22.875 37.7984 22.875 37.5Z" fill="white"/>
</svg>
