<svg width="60" height="60" viewBox="0 0 60 60" fill="none" xmlns="http://www.w3.org/2000/svg">
<circle cx="30" cy="30" r="30" fill="#4E4E4E"/>
<g clip-path="url(#clip0_4108_2839)">
<path d="M48 21V48H12V21H21.0879C21.0645 20.8125 21.0469 20.625 21.0352 20.4375C21.0234 20.25 21.0117 20.0625 21 19.875C21 18.7852 21.2051 17.7656 21.6152 16.8164C22.0254 15.8672 22.5879 15.0293 23.3027 14.3027C24.0176 13.5762 24.8496 13.0137 25.7988 12.6152C26.748 12.2168 27.7734 12.0117 28.875 12C29.9648 12 30.9844 12.2051 31.9336 12.6152C32.8828 13.0254 33.7207 13.5879 34.4473 14.3027C35.1738 15.0176 35.7363 15.8496 36.1348 16.7988C36.5332 17.748 36.7383 18.7734 36.75 19.875C36.75 20.0625 36.7441 20.25 36.7324 20.4375C36.7207 20.625 36.6973 20.8125 36.6621 21H48ZM28.875 14.25C28.1016 14.25 27.375 14.3965 26.6953 14.6895C26.0156 14.9824 25.418 15.3867 24.9023 15.9023C24.3867 16.418 23.9824 17.0156 23.6895 17.6953C23.3965 18.375 23.25 19.1016 23.25 19.875C23.25 20.6484 23.3965 21.375 23.6895 22.0547C23.9824 22.7344 24.3809 23.332 24.8848 23.8477C25.3887 24.3633 25.9863 24.7676 26.6777 25.0605C27.3691 25.3535 28.1016 25.5 28.875 25.5C29.6484 25.5 30.375 25.3535 31.0547 25.0605C31.7344 24.7676 32.3262 24.3691 32.8301 23.8652C33.334 23.3613 33.7383 22.7637 34.043 22.0723C34.3477 21.3809 34.5 20.6484 34.5 19.875C34.5 19.1016 34.3535 18.375 34.0605 17.6953C33.7676 17.0156 33.3633 16.4238 32.8477 15.9199C32.332 15.416 31.7344 15.0117 31.0547 14.707C30.375 14.4023 29.6484 14.25 28.875 14.25ZM45.75 23.25H35.9941C35.7012 23.8594 35.3379 24.4277 34.9043 24.9551C34.4707 25.4824 33.9727 25.9336 33.4102 26.3086C34.6172 26.7773 35.707 27.3984 36.6797 28.1719C37.6523 28.9453 38.4727 29.8359 39.1406 30.8438C39.8086 31.8516 40.3301 32.9531 40.7051 34.1484C41.0801 35.3438 41.2617 36.5859 41.25 37.875V39H39V37.875C39 36.4336 38.7422 35.0977 38.2266 33.8672C37.7109 32.6367 37.002 31.5645 36.0996 30.6504C35.1973 29.7363 34.1309 29.0273 32.9004 28.5234C31.6699 28.0195 30.3281 27.7617 28.875 27.75C27.5742 27.75 26.3438 27.9727 25.1836 28.418C24.0234 28.8633 22.9922 29.4902 22.0898 30.2988C21.1875 31.1074 20.4492 32.0566 19.875 33.1465C19.3008 34.2363 18.9434 35.4375 18.8027 36.75H30.1934L26.1504 32.707L27.75 31.125L34.5 37.875L27.75 44.625L26.1504 43.043L30.1934 39H16.5V37.875C16.5 36.5859 16.6816 35.3496 17.0449 34.166C17.4082 32.9824 17.9355 31.8867 18.627 30.8789C19.3184 29.8711 20.1445 28.9805 21.1055 28.207C22.0664 27.4336 23.1504 26.8066 24.3574 26.3262C23.209 25.5176 22.3418 24.4922 21.7559 23.25H14.25V45.75H45.75V23.25Z" fill="white"/>
</g>
<defs>
<clipPath id="clip0_4108_2839">
<rect width="36" height="36" fill="white" transform="translate(12 12)"/>
</clipPath>
</defs>
</svg>
