<svg width="60" height="60" viewBox="0 0 60 60" fill="none" xmlns="http://www.w3.org/2000/svg">
<circle cx="30" cy="30" r="30" fill="#FF78BF"/>
<path d="M29.72 36.16C28.28 36.16 27.08 35.7867 26.12 35.04C25.1733 34.28 24.6333 33.28 24.5 32.04L26.98 31.64C27.0867 32.2933 27.3867 32.82 27.88 33.22C28.3867 33.6067 29.0067 33.8 29.74 33.8C30.5133 33.8 31.1333 33.5867 31.6 33.16C32.08 32.7333 32.32 32.1733 32.32 31.48C32.32 30.76 32.0933 30.1933 31.64 29.78C31.1867 29.3667 30.5733 29.16 29.8 29.16C29.1867 29.16 28.66 29.3133 28.22 29.62L27.16 27.84L31 24.34H24.9V22H34.18V24.2L30.6 27.4C31.92 27.3467 32.9867 27.7 33.8 28.46C34.6267 29.2067 35.04 30.2333 35.04 31.54C35.04 32.9267 34.5533 34.0467 33.58 34.9C32.6067 35.74 31.32 36.16 29.72 36.16Z" fill="white"/>
</svg>
