<svg width="60" height="60" viewBox="0 0 60 60" fill="none" xmlns="http://www.w3.org/2000/svg">
<circle cx="30" cy="30" r="30" fill="#F47733"/>
<path d="M24.58 36L24.56 33.8L29.54 29.6C30.9933 28.3733 31.72 27.26 31.72 26.26C31.72 25.6333 31.52 25.1333 31.12 24.76C30.7333 24.3733 30.2067 24.18 29.54 24.18C28.7667 24.18 28.1667 24.46 27.74 25.02C27.3267 25.58 27.16 26.32 27.24 27.24L24.66 27.06C24.5267 25.58 24.9333 24.34 25.88 23.34C26.8267 22.34 28.0467 21.84 29.54 21.84C31.02 21.84 32.2067 22.2467 33.1 23.06C34.0067 23.8733 34.46 24.94 34.46 26.26C34.46 27.14 34.1933 27.9933 33.66 28.82C33.1267 29.6333 32.2867 30.4933 31.14 31.4L28.38 33.64H34.44V36H24.58Z" fill="white"/>
</svg>
